<?xml version="1.0" standalone="no"?>
<!DOCTYPE svg PUBLIC "-//W3C//DTD SVG 20010904//EN"
 "http://www.w3.org/TR/2001/REC-SVG-20010904/DTD/svg10.dtd">
<svg version="1.0" xmlns="http://www.w3.org/2000/svg"
 width="227.000000pt" height="227.000000pt" viewBox="0 0 227.000000 227.000000"
 preserveAspectRatio="xMidYMid meet">
<metadata>
Created by potrace 1.14, written by Peter Selinger 2001-2017
</metadata>
<g transform="translate(0.000000,227.000000) scale(0.100000,-0.100000)"
fill="#000000" stroke="none">
<path d="M918 2236 c-1 -2 -28 -6 -58 -10 -30 -3 -72 -11 -94 -17 -21 -6 -46
-12 -55 -14 -46 -11 -153 -55 -206 -85 -145 -82 -235 -153 -333 -265 -39 -44
-42 -52 -41 -104 0 -56 0 -56 17 -31 72 104 181 212 279 277 81 54 260 141
308 149 6 1 33 7 60 14 99 23 277 30 375 16 177 -26 381 -112 496 -208 162
-135 230 -219 309 -383 86 -180 121 -380 100 -575 -23 -209 -126 -435 -273
-594 -56 -61 -159 -146 -223 -185 -43 -25 -55 -38 -52 -52 10 -38 27 -38 89
-1 202 122 366 320 453 548 58 153 65 195 66 384 0 96 -3 195 -7 220 -42 250
-192 504 -393 665 -27 22 -52 42 -55 45 -13 14 -152 92 -210 118 -133 60 -280
90 -442 90 -58 1 -108 -1 -110 -2z"/>
<path d="M369 1471 c-77 -21 -146 -92 -178 -184 -20 -57 -23 -82 -19 -160 5
-109 33 -182 96 -245 88 -88 245 -96 349 -16 38 29 39 31 14 63 l-19 25 -34
-26 c-43 -32 -100 -51 -141 -45 -39 5 -97 34 -115 56 -97 122 -86 354 21 435
66 50 156 52 220 4 l32 -25 23 28 23 28 -41 30 c-40 29 -116 53 -156 49 -12
-1 -46 -9 -75 -17z"/>
<path d="M1511 1478 c-127 -35 -203 -158 -203 -327 0 -211 109 -341 285 -341
118 0 223 89 255 215 48 188 -11 368 -141 433 -51 25 -143 35 -196 20z m171
-92 c28 -20 66 -74 80 -115 20 -60 15 -208 -9 -261 -53 -116 -152 -157 -253
-105 -127 66 -146 353 -30 464 52 49 154 57 212 17z"/>
<path d="M783 1467 c-5 -8 -8 -542 -4 -629 1 -14 10 -18 41 -18 l40 0 0 130 0
130 78 1 c93 1 113 4 168 28 62 28 97 85 100 163 4 94 -27 145 -105 181 -36
16 -70 20 -178 22 -83 1 -136 -2 -140 -8z m284 -81 c42 -21 56 -50 56 -109 0
-86 -54 -126 -172 -128 -101 -2 -91 -15 -91 132 l0 131 88 -4 c53 -3 99 -11
119 -22z"/>
</g>
</svg>
